<svg width="377" height="58" viewBox="0 0 377 58" fill="none" xmlns="http://www.w3.org/2000/svg">
<g clip-path="url(#clip0_1_2)">
<g style="mix-blend-mode:darken">
<path d="M16.5603 21.2565V13.759H29.2482C36.2514 13.759 38.2288 9.72196 38.2288 6.09683C38.2288 4.20186 38.1463 3.29559 37.8991 1.07107H0V56.3544H16.5603V33.862H32.7911V21.2565H16.5603Z" fill="#515151"/>
</g>
<g style="mix-blend-mode:darken">
<path d="M91.3766 28.6715C91.3766 12.276 83.5497 7.62939e-06 65.4239 7.62939e-06C47.0511 7.62939e-06 38.6474 13.1823 38.6474 28.754C38.6474 44.9846 46.0623 57.8374 64.7648 57.8374C83.5497 57.8374 91.3766 44.9023 91.3766 28.6715ZM74.4868 28.754C74.4868 37.3225 72.0152 44.9023 65.0945 44.9023C58.256 44.9023 55.6196 37.3225 55.6196 28.754C55.6196 20.3502 58.3385 12.9352 65.3417 12.9352C71.9327 12.9352 74.4868 20.3502 74.4868 28.754Z" fill="#515151"/>
</g>
<g style="mix-blend-mode:darken">
<path d="M115.181 56.3544V8.89806C115.181 1.81257 109.331 0.659119 104.965 0.659119C103.894 0.659119 102.328 0.741511 101.01 0.988677L98.6206 1.23585V56.3544H115.181Z" fill="#515151"/>
</g>
<g style="mix-blend-mode:darken">
<path d="M165.806 17.9609C165.806 6.17922 157.65 0.659119 140.595 0.659119C136.393 0.659119 129.885 0.90629 124.035 1.56541V56.3544H140.677V38.3936H141.749L148.669 51.9053C151.306 56.1897 154.436 57.4255 159.957 57.4255C163.994 57.4255 166.877 56.3544 169.431 55.1186L157.32 34.3564C161.275 32.132 165.806 26.6943 165.806 17.9609ZM148.34 19.6087C148.34 24.1401 146.857 27.7654 142.655 27.7654H140.595V12.1113C140.842 12.1113 141.007 12.1113 141.254 12.0289C141.666 12.0289 142.078 11.9465 142.655 11.9465C146.28 11.9465 148.34 14.6653 148.34 19.6087Z" fill="#515151"/>
</g>
<g style="mix-blend-mode:darken">
<path d="M204.297 43.8313H191.114V34.6859H207.016V22.0804H191.114V13.759H203.473C210.476 13.759 212.371 9.63958 212.371 6.01444C212.371 4.11947 212.288 3.29559 212.041 1.07107H174.472V56.3544H213.277C213.359 54.4594 213.442 53.6356 213.442 51.7406C213.442 48.0331 211.876 43.8313 204.297 43.8313Z" fill="#515151"/>
</g>
<g style="mix-blend-mode:darken">
<path d="M254.031 56.3544H270.508L254.36 7.9918C251.888 1.15346 246.617 0.659119 242.991 0.659119C238.789 0.659119 235.082 1.48302 233.022 2.3893L215.308 56.3544H231.621L235.823 43.3368H249.499L254.031 56.3544ZM244.391 22.41L247.11 32.7911H238.13L241.013 22.3276C241.59 20.3502 242.332 16.4779 242.579 14.171H242.826C242.908 16.3955 243.815 20.1031 244.391 22.41Z" fill="#515151"/>
</g>
<g style="mix-blend-mode:darken">
<path d="M305.347 30.649L291.423 5.6025C289.692 2.3893 287.303 0.659119 282.112 0.659119C279.228 0.659119 276.429 0.988677 274.862 1.23585V56.3544H290.927V29.0012L308.147 56.3544H321.496V8.81568C321.496 1.81257 315.646 0.659119 311.278 0.659119C310.206 0.659119 308.725 0.741511 307.488 0.988677L305.347 1.23585V30.649Z" fill="#515151"/>
</g>
<path d="M360.852 30.649L346.929 5.6025C345.199 2.3893 342.81 0.659119 337.619 0.659119C334.735 0.659119 331.933 0.988677 330.369 1.23585V56.3544H346.434V29.0012L363.653 56.3544H377V8.81568C377 1.81257 371.15 0.659119 366.784 0.659119C365.713 0.659119 364.229 0.741511 362.995 0.988677L360.852 1.23585V30.649Z" fill="#515151"/>
</g>
<defs>
<clipPath id="clip0_1_2">
<rect width="377" height="58" fill="white"/>
</clipPath>
</defs>
</svg>
